/* XPM */
static char * bottom_active_xpm[] = {
"24 4 3 1",
"   c None",
"#  c #C0C0C0 s active_color_2",
"%  c #000000 s active_border_color",
"########################",
"########################",
"########################",
"%%%%%%%%%%%%%%%%%%%%%%%%"};
