/* XPM */
static char * close_inactive_xpm[] = {
"18 22 3 1",
"   c None",
"@  c #C0C0FF s inactive_color_2",
"%  c #000000 s inactive_text_color",
"                  ",
"                  ",
"                  ",
"                  ",
" @@@@@@@@@@@@@@@@ ",
" @%%@@@@@@@@@@%%@ ",
" @%%%@@@@@@@@%%%@ ",
" @@%%%@@@@@@%%%@@ ",
" @@@%%%@@@@%%%@@@ ",
" @@@@%%%@@%%%@@@@ ",
" @@@@@%%%%%%@@@@@ ",
" @@@@@@%%%%@@@@@@ ",
" @@@@@@%%%%@@@@@@ ",
" @@@@@%%%%%%@@@@@ ",
" @@@@%%%@@%%%@@@@ ",
" @@@%%%@@@@%%%@@@ ",
" @@%%%@@@@@@%%%@@ ",
" @%%%@@@@@@@@%%%@ ",
" @%%@@@@@@@@@@%%@ ",
" @@@@@@@@@@@@@@@@ ",
"                  ",
"                  "};
