/* XPM */
static char * maximize_prelight_xpm[] = {
"18 22 3 1",
"   c None",
"@  c #C0C0FF s active_color_2",
"%  c #000000 s active_border_color",
"                  ",
"                  ",
"                  ",
"%%%%%%%%%%%%%%%%%%",
"%@@@@@@@@@@@@@@@@%",
"%@@@@@@@@@@@@@@@@%",
"%@@%%%%%%%%%%%%@@%",
"%@@%%%%%%%%%%%%@@%",
"%@@%%@@@@@@@@%%@@%",
"%@@%%@@@@@@@@%%@@%",
"%@@%%@@@@@@@@%%@@%",
"%@@%%@@@@@@@@%%@@%",
"%@@%%@@@@@@@@%%@@%",
"%@@%%@@@@@@@@%%@@%",
"%@@%%@@@@@@@@%%@@%",
"%@@%%@@@@@@@@%%@@%",
"%@@%%%%%%%%%%%%@@%",
"%@@%%%%%%%%%%%%@@%",
"%@@@@@@@@@@@@@@@@%",
"%@@@@@@@@@@@@@@@@%",
"%%%%%%%%%%%%%%%%%%",
"                  "};
