/* XPM */
static char * top_left_inactive_xpm[] = {
"8 22 3 1",
"   c None",
"@  c #C0C0FF s inactive_color_2",
"%  c #000000 s inactive_border_color",
"%%%%%%%%",
"%@@@@@@@",
"%@@@@@@@",
"%@@@@@@@",
"%@@@@@@@",
"%@@@@@@@",
"%@@@@@@@",
"%@@@@@@@",
"%@@@@@@@",
"%@@@@@@@",
"%@@@@@@@",
"%@@@@@@@",
"%@@@@@@@",
"%@@@@@@@",
"%@@@@@@@",
"%@@@@@@@",
"%@@@@@@@",
"%@@@@@@@",
"%@@@@@@@",
"%@@@@@@@",
"%@@@@@@@",
"%@@@@@@@"};
