<?xml version="1.0" encoding="UTF-8"?>
<svg width="32" height="32" version="1.1" xmlns="http://www.w3.org/2000/svg">
 <path d="m5.0521 14.585c0-6.0748 4.9022-11 10.948-11 6.0463 0 10.948 4.9252 10.948 11s-4.9021 11-10.948 11c-6.0463 0-10.948-4.9252-10.948-11z" stroke="#fcfcfc" stroke-width="2"/>
 <path d="m12.002 10.626h1c0.01031-1.2e-4 0.02079-4.59e-4 0.03125 0 0.25495 0.01121 0.50986 0.12858 0.6875 0.3125l2.2811 2.2811 2.3125-2.2811c0.26562-0.2305 0.44667-0.3055 0.6875-0.3125h1v1c0 0.28647-0.03435 0.55065-0.25 0.74999l-2.2811 2.2811 2.25 2.25c0.18818 0.18817 0.28124 0.45345 0.28124 0.71875v1h-1c-0.26529-1.1e-5 -0.53058-0.0931-0.71874-0.28124l-2.2798-2.2798-2.2818 2.2811c-0.18824 0.18838-0.45348 0.2805-0.71885 0.2805h-0.9999v-1c-3e-6 -0.26529 0.09306-0.53058 0.28124-0.71875l2.2811-2.2495-2.2811-2.2811c-0.21079-0.19456-0.30319-0.46915-0.28119-0.74992v-1z" fill="#fcfcfc"/>
</svg>
