<?xml version="1.0" encoding="UTF-8"?>
<svg width="512px" height="512px" enable-background="new 0 0 512 512" version="1.1" viewBox="0 0 512 512" xmlns="http://www.w3.org/2000/svg"><path d="m501.42 232.7s-9.0679-3.4102-35.302-5.8303c-32.077-2.9654-41.754-14.988-52.423-29.955h-0.21458c-1.3286-3.5575-2.7518-7.0701-4.3184-10.512l0.12389-0.12388c-3.0454-18.124-4.6939-33.474 15.892-58.253 16.827-20.256 20.841-29.086 20.841-29.086-3.9486-10.021-13.443-19.513-13.443-19.513s-9.497-9.4951-19.513-13.438c0 0-8.8298 4.0033-29.086 20.837-24.78 20.584-40.13 18.931-58.253 15.892l-0.12488 0.12287c-3.4375-1.5656-6.9453-2.9829-10.511-4.3184v-0.20874c-14.968-10.666-26.99-20.353-29.956-52.43-2.424-26.221-5.8293-35.301-5.8293-35.301-9.8804-4.2969-23.303-4.2969-23.303-4.2969s-13.428 0-23.301 4.2969c0 0-3.4122 9.0805-5.8323 35.301-2.9664 32.077-14.995 41.764-29.955 52.43v0.20874c-3.5575 1.3354-7.0721 2.7517-10.512 4.3125l-0.11903-0.11699c-18.123 3.0502-33.474 4.6968-58.253-15.885-20.254-16.828-29.096-20.839-29.096-20.839-10.021 3.9535-19.501 13.433-19.501 13.433s-9.4961 9.5039-13.439 19.518c0 0 3.9984 8.8308 20.838 29.081 20.582 24.779 18.913 40.129 15.884 58.253l0.12484 0.12388c-1.5676 3.4414-2.9839 6.954-4.3203 10.512h-0.20782c-10.659 14.973-20.347 26.99-52.422 29.955-26.223 2.425-35.314 5.842-35.314 5.842-4.2862 9.8823-4.2862 23.291-4.2862 23.291s0 13.433 4.2969 23.301c0 0 9.0688 3.417 35.297 5.8313 32.076 2.9664 41.753 15.003 52.428 29.956h0.20877c1.3364 3.5653 2.7518 7.0731 4.3203 10.512l-0.12486 0.12386c3.0512 18.126 4.6969 33.474-15.884 58.253-16.829 20.255-20.844 29.097-20.844 29.097 3.9594 10.016 13.437 19.502 13.437 19.502s9.5029 9.4971 19.519 13.433c0 0 8.825-3.9935 29.081-20.833 24.779-20.582 40.135-18.913 58.252-15.888l0.12489-0.12487c3.4395 1.5656 6.954 2.9771 10.512 4.3184v0.2146c14.972 10.66 26.989 20.347 29.955 52.424 2.424 26.221 5.8362 35.312 5.8362 35.312 9.8863 4.2852 23.296 4.2852 23.296 4.2852s13.433 0 23.303-4.2969c0 0 3.418-9.0698 5.8293-35.301 2.9664-32.077 15.002-41.754 29.956-52.424v-0.2146c3.5653-1.3413 7.073-2.7518 10.511-4.3184l0.12488 0.12486c18.123-3.0454 33.473-4.6939 58.253 15.888 20.257 16.83 29.1 20.845 29.1 20.845 10.015-3.9604 19.499-13.444 19.499-13.444s9.4942-9.4971 13.443-19.513c0 0-4.0033-8.8318-20.841-29.086-20.586-24.779-18.927-40.127-15.892-58.253l-0.12389-0.12386c1.5656-3.4385 2.9888-6.9462 4.3184-10.512h0.21458c10.66-14.965 20.346-26.99 52.423-29.956 26.221-2.424 35.313-5.8313 35.313-5.8313 4.2872-9.8785 4.2872-23.301 4.2872-23.301s-9.8e-4 -13.433-4.2979-23.303zm-245.42 140.09c-64.502 0-116.79-52.287-116.79-116.79s52.288-116.79 116.79-116.79c64.501 0 116.79 52.287 116.79 116.79s-52.288 116.79-116.79 116.79z" fill="#fcfcfc"/></svg>
