<?xml version="1.0" encoding="UTF-8"?>
<svg width="64" height="22" version="1.1" xmlns="http://www.w3.org/2000/svg">
 <rect x="2" y="2" width="60" height="18" fill="#1e90ff" stroke="#fcfcfc" stroke-width="2px"/>
 <rect x="32" y="2" width="30" height="18" fill="#1a1a1a" stroke="#fcfcfc" stroke-width="2px"/>
 <g fill="#fcfcfc" fill-opacity=".98413">
  <path d="m12.93 15.07c-0.594-1e-6 -1.1073-0.10267-1.54-0.308-0.433-0.205-0.788-0.488-1.067-0.847-0.279-0.367-0.4877-0.796-0.627-1.287-0.132-0.499-0.198-1.041-0.198-1.628s0.066-1.1293 0.198-1.628c0.1393-0.506 0.3483-0.9423 0.627-1.309s0.634-0.6527 1.067-0.858c0.43266-0.20533 0.946-0.30799 1.54-0.308 0.594 8.1e-6 1.1073 0.10267 1.54 0.308 0.43266 0.20534 0.78833 0.49134 1.067 0.858 0.27866 0.36667 0.48399 0.80301 0.616 1.309 0.13933 0.49867 0.20899 1.0413 0.209 1.628-8e-6 0.58667-0.06967 1.1293-0.209 1.628-0.13201 0.49134-0.33734 0.92033-0.616 1.287-0.27867 0.35933-0.63434 0.64167-1.067 0.847-0.43267 0.20533-0.946 0.308-1.54 0.308m0-1.342c1.1367 1e-6 1.705-0.90933 1.705-2.728-6e-6 -0.90933-0.13934-1.5913-0.418-2.046-0.27134-0.45466-0.69667-0.68199-1.276-0.682-1.1513 6.7e-6 -1.727 0.90934-1.727 2.728-2e-6 1.8187 0.572 2.728 1.716 2.728"/>
  <path d="m17.699 7.029c0.22733-0.043992 0.44367-0.065992 0.649-0.066 0.22 8e-6 0.44733 0.022008 0.682 0.066l3.058 5.038v-5.038c0.264-0.043992 0.517-0.065992 0.759-0.066 0.22733 8e-6 0.44733 0.022008 0.66 0.066v7.909c-0.23467 0.044-0.44734 0.066-0.638 0.066-0.20534-1e-6 -0.429-0.022-0.671-0.066l-3.08-5.027v5.027c-0.23467 0.044-0.473 0.066-0.715 0.066-0.242-1e-6 -0.47667-0.022-0.704-0.066v-7.909"/>
 </g>
</svg>
