<?xml version="1.0" encoding="UTF-8"?>
<svg width="64" height="22" version="1.1" xmlns="http://www.w3.org/2000/svg">
 <rect x="2" y="2" width="60" height="18" fill="#313131" stroke="#fcfcfc" stroke-width="2px"/>
 <rect x="2" y="2" width="30" height="18" fill="#1a1a1a" stroke="#fcfcfc" stroke-width="2px"/>
 <g fill="#fcfcfc">
  <path d="m41.231 14.821c-0.594 0-1.1073-0.10267-1.54-0.308-0.43267-0.20533-0.78834-0.48767-1.067-0.847-0.27867-0.36667-0.48767-0.79566-0.627-1.287-0.132-0.49866-0.198-1.0413-0.198-1.628-1e-6 -0.58666 0.066-1.1293 0.198-1.628 0.13933-0.50599 0.34833-0.94233 0.627-1.309 0.27866-0.36666 0.63433-0.65266 1.067-0.858 0.43266-0.20533 0.946-0.30799 1.54-0.308 0.594 8e-6 1.1073 0.10267 1.54 0.308 0.43266 0.20534 0.78833 0.49134 1.067 0.858 0.27866 0.36667 0.48399 0.80301 0.616 1.309 0.13933 0.49867 0.20899 1.0413 0.209 1.628-8e-6 0.58667-0.06967 1.1293-0.209 1.628-0.13201 0.49134-0.33734 0.92033-0.616 1.287-0.27867 0.35933-0.63434 0.64167-1.067 0.847-0.43267 0.20533-0.946 0.308-1.54 0.308m0-1.342c1.1367 1e-6 1.705-0.90933 1.705-2.728-6e-6 -0.90933-0.13934-1.5913-0.418-2.046-0.27134-0.45466-0.69667-0.68199-1.276-0.682-1.1513 6.6e-6 -1.727 0.90934-1.727 2.728-3e-6 1.8187 0.572 2.728 1.716 2.728"/>
  <path d="m46 6.7804h4.488c0.044 0.22001 0.066 0.44367 0.066 0.671-5e-6 0.24201-0.02201 0.47301-0.066 0.693h-2.882v1.859h2.288c0.044 0.23467 0.066 0.462 0.066 0.682-5e-6 0.23467-0.02201 0.46567-0.066 0.693h-2.288v3.311c-0.27867 0.044-0.54267 0.066-0.792 0.066-0.27134 0-0.54267-0.022-0.814-0.066v-7.909"/>
  <path d="m51.586 6.7804h4.488c0.04399 0.22001 0.06599 0.44367 0.066 0.671-6e-6 0.24201-0.02201 0.47301-0.066 0.693h-2.882v1.859h2.288c0.04399 0.23467 0.066 0.462 0.066 0.682-5e-6 0.23467-0.02201 0.46567-0.066 0.693h-2.288v3.311c-0.27867 0.044-0.54267 0.066-0.792 0.066-0.27134 0-0.54267-0.022-0.814-0.066v-7.909"/>
 </g>
</svg>
